<svg id="Lv1_ic_close" xmlns="http://www.w3.org/2000/svg" width="24" height="24"
    viewBox="0 0 24 24">
  <defs>
    <clipPath id="clip-path">
      <rect id="長方形_5785" data-name="長方形 5785" width="24" height="24" fill="none" />
    </clipPath>
  </defs>
  <rect id="長方形_5784" data-name="長方形 5784" width="24" height="24" fill="#fff" opacity="0" />
  <g id="グループ_774" data-name="グループ 774">
    <g id="グループ_773" data-name="グループ 773" clip-path="url(#clip-path)">
      <path id="パス_1868" data-name="パス 1868"
          d="M21.5,22a.5.5,0,0,1-.354-.146l-19-19a.5.5,0,0,1,.708-.708l19,19A.5.5,0,0,1,21.5,22"
          fill="#94a1a9" />
      <path id="パス_1869" data-name="パス 1869"
          d="M2.5,22a.5.5,0,0,1-.354-.854l19-19a.5.5,0,0,1,.708.708l-19,19A.5.5,0,0,1,2.5,22"
          fill="#94a1a9" />
    </g>
  </g>
</svg>
