<svg id="Lv1_ic_setting" xmlns="http://www.w3.org/2000/svg" width="24" height="24"
    viewBox="0 0 24 24">
  <defs>
    <clipPath id="clip-path">
      <rect id="長方形_5758" data-name="長方形 5758" width="24" height="24" fill="#94a1a9" />
    </clipPath>
  </defs>
  <g id="Lv1_ic_setting-2" data-name="Lv1_ic_setting" clip-path="url(#clip-path)">
    <path id="パス_1850" data-name="パス 1850"
        d="M13,23.5H11A1.5,1.5,0,0,1,9.5,22v-.989a.482.482,0,0,0-.309-.463,8.625,8.625,0,0,1-1.244-.517.485.485,0,0,0-.548.106l-.7.7a1.5,1.5,0,0,1-2.122,0L3.164,19.421a1.5,1.5,0,0,1,0-2.122l.7-.7a.48.48,0,0,0,.107-.548,8.734,8.734,0,0,1-.519-1.245.48.48,0,0,0-.462-.307H2A1.5,1.5,0,0,1,.5,13V11A1.5,1.5,0,0,1,2,9.5h.988a.479.479,0,0,0,.462-.309,8.734,8.734,0,0,1,.519-1.245A.483.483,0,0,0,3.862,7.4l-.7-.7a1.5,1.5,0,0,1,0-2.121L4.579,3.164a1.5,1.5,0,0,1,2.122,0l.7.7a.482.482,0,0,0,.548.106,8.634,8.634,0,0,1,1.245-.518A.479.479,0,0,0,9.5,2.989V2A1.5,1.5,0,0,1,11,.5h2A1.5,1.5,0,0,1,14.5,2v.988a.478.478,0,0,0,.307.461,8.834,8.834,0,0,1,1.246.519.481.481,0,0,0,.548-.106l.7-.7a1.536,1.536,0,0,1,2.122,0L20.836,4.58a1.5,1.5,0,0,1,0,2.121l-.7.7a.48.48,0,0,0-.107.548,8.792,8.792,0,0,1,.519,1.245.479.479,0,0,0,.462.309H22A1.5,1.5,0,0,1,23.5,11v2A1.5,1.5,0,0,1,22,14.5h-.988a.48.48,0,0,0-.462.307,8.792,8.792,0,0,1-.519,1.245.481.481,0,0,0,.106.548l.7.7a1.5,1.5,0,0,1,0,2.122L19.42,20.837a1.537,1.537,0,0,1-2.121,0l-.7-.7a.481.481,0,0,0-.548-.106,8.626,8.626,0,0,1-1.246.518.481.481,0,0,0-.307.462V22A1.5,1.5,0,0,1,13,23.5M7.752,18.985a1.427,1.427,0,0,1,.65.156,7.713,7.713,0,0,0,1.1.458,1.474,1.474,0,0,1,1,1.413V22a.5.5,0,0,0,.5.5h2a.5.5,0,0,0,.5-.5v-.989a1.473,1.473,0,0,1,.995-1.412,7.714,7.714,0,0,0,1.1-.459,1.463,1.463,0,0,1,1.71.291l.7.7a.512.512,0,0,0,.707,0l1.416-1.416a.5.5,0,0,0,0-.708l-.7-.7a1.469,1.469,0,0,1-.29-1.71,7.809,7.809,0,0,0,.459-1.1,1.47,1.47,0,0,1,1.412-.995H22a.5.5,0,0,0,.5-.5V11a.5.5,0,0,0-.5-.5h-.988a1.471,1.471,0,0,1-1.412-1,7.821,7.821,0,0,0-.459-1.1,1.472,1.472,0,0,1,.289-1.71l.7-.7a.5.5,0,0,0,0-.707L18.713,3.871a.511.511,0,0,0-.707,0l-.7.7a1.47,1.47,0,0,1-1.709.29,7.767,7.767,0,0,0-1.1-.46,1.467,1.467,0,0,1-1-1.411V2a.5.5,0,0,0-.5-.5H11a.5.5,0,0,0-.5.5v.988A1.469,1.469,0,0,1,9.5,4.4a7.719,7.719,0,0,0-1.1.459,1.473,1.473,0,0,1-1.71-.29l-.7-.7a.5.5,0,0,0-.707,0L3.871,5.287a.5.5,0,0,0,0,.707l.7.7a1.471,1.471,0,0,1,.29,1.71,7.743,7.743,0,0,0-.459,1.1,1.471,1.471,0,0,1-1.412,1H2a.5.5,0,0,0-.5.5v2a.5.5,0,0,0,.5.5h.988A1.47,1.47,0,0,1,4.4,14.5a7.683,7.683,0,0,0,.459,1.1,1.469,1.469,0,0,1-.29,1.71l-.7.7a.5.5,0,0,0,0,.708L5.286,20.13a.5.5,0,0,0,.708,0l.7-.7a1.5,1.5,0,0,1,1.06-.446"
        fill="#94a1a9" />
    <path id="パス_1851" data-name="パス 1851"
        d="M12,16.5A4.5,4.5,0,1,1,16.5,12,4.505,4.505,0,0,1,12,16.5m0-8A3.5,3.5,0,1,0,15.5,12,3.5,3.5,0,0,0,12,8.5"
        fill="#94a1a9" />
  </g>
</svg>
